<svg xmlns="http://www.w3.org/2000/svg" width="60" height="60" viewBox="15 15 30 30" fill="none">
  <circle cx="30" cy="30" r="15" fill="black"/>
  <path fill-rule="evenodd" clip-rule="evenodd" d="M15 30C15 21.7154 21.7154 15 30 15C38.2846 15 45.0018 21.7154 45 30C45 38.2846 38.2846 45 30 45C21.7154 45 15 38.2846 15 30ZM38.8739 28.2987C34.0393 25.4273 26.0628 25.164 21.4467 26.5648C20.7052 26.7905 19.9224 26.3713 19.6967 25.6297C19.4728 24.8881 19.8901 24.1054 20.6317 23.8797C25.9303 22.2711 34.7397 22.5828 40.3051 25.8859C40.9715 26.2817 41.19 27.1433 40.7959 27.8079C40.4 28.4742 39.5384 28.6946 38.8739 28.2987ZM37.1077 32.9363C37.6576 33.2748 38.3777 33.1011 38.7163 32.5511C39.053 32.003 38.8811 31.2829 38.3293 30.9444C33.7007 28.0981 26.928 27.2974 21.479 28.9507C20.8628 29.1388 20.5135 29.7908 20.6998 30.4088C20.8879 31.0268 21.5417 31.3743 22.1597 31.188C26.9298 29.7407 33.0774 30.459 37.1077 32.9363ZM35.5941 36.9487C36.0347 37.2174 36.6115 37.0794 36.8802 36.637C37.1489 36.1964 37.011 35.6196 36.5703 35.3527C32.6152 32.9381 27.7143 32.3756 22.0002 33.6814C21.4951 33.7961 21.1816 34.2976 21.2963 34.801C21.4109 35.3025 21.9125 35.6178 22.4158 35.5031C27.6373 34.3102 32.0707 34.7956 35.5941 36.9487Z" fill="#1ED760"/>
</svg>